<?xml version="1.0" encoding="UTF-8"?>
<svg
    version="1.1"
    xmlns:dc="http://purl.org/dc/elements/1.1/"
    xmlns:cc="http://creativecommons.org/ns#"
    xmlns:rdf="http://www.w3.org/1999/02/22-rdf-syntax-ns#"
    xmlns:svg="http://www.w3.org/2000/svg"
    xmlns:xlink="http://www.w3.org/1999/xlink"
    xmlns="http://www.w3.org/2000/svg"
    width="250.56"
    height="250.56"
    viewBox="0, 0, 250.56, 250.56"
    preserveAspectRatio="none"
    id="svg2">
   <defs
       id="defs_2903A6EC"/>
   <metadata
       id="metadata7">
      <rdf:RDF>
         <cc:Work
             rdf:about="">
            <dc:format>image/svg+xml</dc:format>
            <dc:type rdf:resource="http://purl.org/dc/dcmitype/StillImage"/>
            <dc:title></dc:title>
         </cc:Work>
      </rdf:RDF>
   </metadata>
   <g
       id="layer_Paper"
       style="fill:#000000;fill-opacity:1;stroke:#000000;stroke-opacity:1;fill-rule:nonzero;stroke-linecap:square;stroke-linejoin:miter;stroke-width:1;stroke-miterlimit:10">
      <path
          style="fill:#2400FF;stroke:none"
          id="4BCF0CDB"
          d="M159.091597222,18.36 C160.421064815,18.36 161.750532407,18.36 163.08,18.36 C189.72,18.36 216.36,45 216.36,71.64 C216.36,72.12 216.36,72.6 216.36,73.08 C216.36,99.72 189.72,126.36 163.08,126.36 C161.734618056,126.36 160.389236111,126.36 159.043854167,126.36
C158.901927083,126.36 158.76,126.218072917 158.76,126.076145833 C158.76,90.2812962963 158.76,54.4864467593 158.76,18.6915972222 C158.76,18.5257986111 158.925798611,18.36 159.091597222,18.36 z"/>
      <path
          style="fill:#2400FF;stroke:none"
          id="FD5252EB"
          d="M159.091597222,119.16 C162.821064815,119.16 166.550532407,119.16 170.28,119.16 C198.72,119.16 227.16,147.6 227.16,176.04 C227.16,176.52 227.16,177 227.16,177.48 C227.16,205.92 198.72,234.36 170.28,234.36
C166.534618056,234.36 162.789236111,234.36 159.043854167,234.36 C158.901927083,234.36 158.76,234.218072917 158.76,234.076145833 C158.76,195.881296296 158.76,157.686446759 158.76,119.491597222 C158.76,119.325798611 158.925798611,119.16 159.091597222,119.16
z"/>
      <path
          style="fill:none;stroke:#2400FF;stroke-width:3.6"
          id="7E706A0C"
          d="M19.8,1.8 C90.12,1.8 160.44,1.8 230.76,1.8 C239.76,1.8 248.76,10.8 248.76,19.8 C248.76,90.12 248.76,160.44 248.76,230.76 C248.76,239.76 239.76,248.76 230.76,248.76 C160.44,248.76 90.12,248.76 19.8,248.76
C10.8,248.76 1.8,239.76 1.8,230.76 C1.8,160.44 1.8,90.12 1.8,19.8 C1.8,10.8 10.8,1.8 19.8,1.8 z"/>
      <rect
          style="fill:#003CFF;stroke:none"
          id="BA7610AC"
          x="25.56"
          y="18.36"
          width="3.6"
          height="216"/>
      <rect
          style="fill:#003CFF;stroke:none"
          id="43594FCC"
          x="31.32"
          y="18.36"
          width="2.16"
          height="216"/>
      <rect
          style="fill:#003CFF;stroke:none"
          id="111A00DC"
          x="39.96"
          y="18.36"
          width="2.16"
          height="216"/>
      <rect
          style="fill:#003CFF;stroke:none"
          id="2BE5B0DC"
          x="45"
          y="18.36"
          width="2.16"
          height="216"/>
      <rect
          style="fill:#003CFF;stroke:none"
          id="242361DC"
          x="52.92"
          y="18.36"
          width="3.6"
          height="216"/>
      <rect
          style="fill:#003CFF;stroke:none"
          id="0B9402DC"
          x="57.96"
          y="18.36"
          width="2.16"
          height="216"/>
      <rect
          style="fill:#003CFF;stroke:none"
          id="E51B82DC"
          x="65.16"
          y="18.36"
          width="3.6"
          height="216"/>
      <rect
          style="fill:#003CFF;stroke:none"
          id="DE6733DC"
          x="70.56"
          y="18.36"
          width="5.76"
          height="216"/>
      <rect
          style="fill:#003CFF;stroke:none"
          id="4BB8A3DC"
          x="78.12"
          y="18.36"
          width="2.16"
          height="216"/>
      <rect
          style="fill:#003CFF;stroke:none"
          id="301134DC"
          x="85.32"
          y="18.36"
          width="3.6"
          height="216"/>
      <rect
          style="fill:#003CFF;stroke:none"
          id="5492B4DC"
          x="90.36"
          y="18.36"
          width="5.76"
          height="216"/>
      <rect
          style="fill:#003CFF;stroke:none"
          id="E72525DC"
          x="101.16"
          y="18.36"
          width="2.16"
          height="216"/>
      <rect
          style="fill:#003CFF;stroke:none"
          id="390495DC"
          x="104.76"
          y="18.36"
          width="3.6"
          height="216"/>
      <rect
          style="fill:#003CFF;stroke:none"
          id="65A516DC"
          x="110.16"
          y="18.36"
          width="3.6"
          height="216"/>
      <rect
          style="fill:#003CFF;stroke:none"
          id="ACA986DC"
          x="115.56"
          y="18.36"
          width="7.2"
          height="216"/>
      <rect
          style="fill:#003CFF;stroke:none"
          id="D941F6DC"
          x="124.92"
          y="18.36"
          width="3.6"
          height="216"/>
      <rect
          style="fill:#003CFF;stroke:none"
          id="A1C6A7DC"
          x="133.56"
          y="18.36"
          width="5.76"
          height="216"/>
      <rect
          style="fill:#003CFF;stroke:none"
          id="E57708DC"
          x="140.76"
          y="18.36"
          width="2.16"
          height="216"/>
      <rect
          style="fill:#003CFF;stroke:none"
          id="662388DC"
          x="144.36"
          y="18.36"
          width="3.6"
          height="216"/>
   </g>
</svg>
